<svg xmlns="http://www.w3.org/2000/svg" width="816" height="609" fill="none"><g filter="url(#a)"><path fill="#0E0E21" d="M686.477 197.76 597.04 246.1a4.199 4.199 0 0 0-1.698 5.691l26.465 48.965a4.2 4.2 0 0 0 5.692 1.698l89.436-48.339a4.2 4.2 0 0 0 1.698-5.692l-26.465-48.965a4.2 4.2 0 0 0-5.691-1.698z"/></g><path stroke="#D7F2FF" stroke-linecap="round" stroke-linejoin="round" stroke-opacity=".12" stroke-width=".465" d="M686.477 197.76 597.04 246.1a4.199 4.199 0 0 0-1.698 5.691l26.465 48.965a4.2 4.2 0 0 0 5.692 1.698l89.436-48.339a4.2 4.2 0 0 0 1.698-5.692l-26.465-48.965a4.2 4.2 0 0 0-5.691-1.698z"/><g opacity=".41"><g filter="url(#b)"><path fill="#0E0E21" d="m705.825 242.232-82.167 44.419a3.167 3.167 0 0 1-2.417.251 3.16 3.16 0 0 1-1.886-1.532l-17.668-32.634a3.165 3.165 0 0 1 1.282-4.303l82.172-44.414a3.174 3.174 0 0 1 4.297 1.287l17.659 32.633c.398.739.488 1.605.25 2.409a3.169 3.169 0 0 1-1.522 1.884z"/></g><path stroke="#D7F2FF" stroke-linecap="round" stroke-linejoin="round" stroke-opacity=".12" stroke-width=".465" d="m705.825 242.232-82.167 44.419a3.167 3.167 0 0 1-2.417.251 3.16 3.16 0 0 1-1.886-1.532l-17.668-32.634a3.165 3.165 0 0 1 1.282-4.303l82.172-44.414a3.174 3.174 0 0 1 4.297 1.287l17.659 32.633c.398.739.488 1.605.25 2.409a3.169 3.169 0 0 1-1.522 1.884z"/></g><path fill="#0E0E21" stroke="#D7F2FF" stroke-linecap="round" stroke-linejoin="round" stroke-opacity=".12" stroke-width=".465" d="M627.55 297.364a2.082 2.082 0 1 1-2.823-.842 2.088 2.088 0 0 1 2.823.842z"/><path fill="#0E0E21" stroke="#D7F2FF" stroke-linecap="round" stroke-linejoin="round" stroke-opacity=".04" stroke-width=".465" d="m697.22 219.774-87.649 47.373 4.295 7.948 87.649-47.374-4.295-7.947z"/><g filter="url(#c)"><path fill="#0E0E21" d="m676.705 225.515-51.104 27.621a2.509 2.509 0 0 0-1.014 3.401l7.957 14.722a2.51 2.51 0 0 0 3.401 1.015l51.104-27.621a2.51 2.51 0 0 0 1.015-3.402l-7.957-14.722a2.51 2.51 0 0 0-3.402-1.014z"/></g><path stroke="#D7F2FF" stroke-linecap="round" stroke-linejoin="round" stroke-opacity=".12" stroke-width=".465" d="m676.705 225.515-51.104 27.621a2.509 2.509 0 0 0-1.014 3.401l7.957 14.722a2.51 2.51 0 0 0 3.401 1.015l51.104-27.621a2.51 2.51 0 0 0 1.015-3.402l-7.957-14.722a2.51 2.51 0 0 0-3.402-1.014z"/><path fill="#0E0E21" stroke="#D7F2FF" stroke-linecap="round" stroke-linejoin="round" stroke-opacity=".05" stroke-width=".465" d="m663.988 239.119-20.028 10.825 5.058 9.359 20.029-10.825-5.059-9.359zm39.467 22.293s-.053-.058-.207-.138c-.154-.081-.355-.254-.592-.423-.542-.4-1.316-.965-2.297-1.697-2.005-1.501-4.873-3.65-8.406-6.3l.146.01-26.244 14.244-26.632 14.343.065-.139 1.302 10.15.331 2.76.078.719c.015.172.023.252.013.252a.813.813 0 0 1-.053-.244l-.114-.715-.402-2.751-1.423-10.135-.007-.091.067-.063 26.568-14.41 26.293-14.162.062-.059.059.062 8.383 6.36c.965.757 1.708 1.331 2.274 1.778.241.194.433.346.561.451.066.059.125.125.175.198z"/><path fill="#0E0E21" stroke="#D7F2FF" stroke-linecap="round" stroke-linejoin="round" stroke-opacity=".12" stroke-width=".465" d="M669.954 269.705a2.078 2.078 0 0 1-1.218 2.979 2.088 2.088 0 0 1-2.216-.66 2.087 2.087 0 0 1-.239-2.301 2.082 2.082 0 0 1 3.673-.018z"/><path fill="#0E0E21" stroke="#D7F2FF" stroke-linecap="round" stroke-linejoin="round" stroke-opacity=".04" stroke-width=".465" d="M683.255 249.753c.068.073-9.082 5.119-20.384 11.227-11.301 6.108-20.511 10.996-20.574 10.888-.062-.108 9.076-5.114 20.383-11.227 11.308-6.113 20.522-10.976 20.575-10.888zm-1.574-30.342c.069.073-14.218 7.897-31.859 17.43-17.641 9.534-31.983 17.195-32.036 17.108-.053-.088 14.214-7.892 31.865-17.436 17.651-9.543 31.978-17.2 32.03-17.102zm-6.712-1.671c.069.073-12.196 6.801-27.358 14.996-15.161 8.195-27.492 14.769-27.54 14.677-.047-.092 12.197-6.801 27.364-15.001 15.167-8.199 27.477-14.775 27.534-14.672z"/><path fill="#0E0E21" stroke="#D7F2FF" stroke-linecap="round" stroke-linejoin="round" stroke-opacity=".12" stroke-width=".465" d="M664.427 244.569a8.262 8.262 0 0 1 .714-9.156 8.261 8.261 0 0 1 8.737-2.832 8.252 8.252 0 0 1 5.092 11.717 8.255 8.255 0 0 1-9.596 4.17 8.256 8.256 0 0 1-4.947-3.899z"/><g filter="url(#d)"><path fill="#0E0E21" d="M675.154 242.56a3.829 3.829 0 0 1-.652.846l.298.953-1.424.818-.678-.723a3.908 3.908 0 0 1-1.059.143l-.462.883-1.605-.449.032-1.008a3.832 3.832 0 0 1-.847-.653l-.942.298-.828-1.423.723-.679a3.9 3.9 0 0 1-.143-1.058l-.873-.462.419-1.586 1.007.032c.178-.311.396-.597.648-.852l-.293-.947 1.419-.823.678.723a4.147 4.147 0 0 1 1.064-.138l.461-.883 1.605.449-.032 1.008c.311.179.597.396.852.648l.948-.293.823 1.418-.723.678c.092.346.14.702.143 1.059l.873.462-.445 1.61-1.007-.032.02-.019z"/></g><path stroke="#D7F2FF" stroke-linecap="round" stroke-linejoin="round" stroke-opacity=".12" stroke-width=".465" d="M675.154 242.56a3.829 3.829 0 0 1-.652.846l.298.953-1.424.818-.678-.723a3.908 3.908 0 0 1-1.059.143l-.462.883-1.605-.449.032-1.008a3.832 3.832 0 0 1-.847-.653l-.942.298-.828-1.423.723-.679a3.9 3.9 0 0 1-.143-1.058l-.873-.462.419-1.586 1.007.032c.178-.311.396-.597.648-.852l-.293-.947 1.419-.823.678.723a4.147 4.147 0 0 1 1.064-.138l.461-.883 1.605.449-.032 1.008c.311.179.597.396.852.648l.948-.293.823 1.418-.723.678c.092.346.14.702.143 1.059l.873.462-.445 1.61-1.007-.032.02-.019z"/><path fill="#0E0E21" stroke="#D7F2FF" stroke-linecap="round" stroke-linejoin="round" stroke-opacity=".12" stroke-width=".465" d="M634.396 261.271a8.257 8.257 0 1 1 11.204 3.176 8.266 8.266 0 0 1-11.204-3.176z"/><g filter="url(#e)"><path fill="#0E0E21" d="M645.119 259.266a4.107 4.107 0 0 1-.648.852l.293.948-1.419.822-.678-.723a4.071 4.071 0 0 1-1.059.143l-.451.874-1.61-.445.032-1.008a4.164 4.164 0 0 1-.852-.647l-.909.344-.823-1.418.723-.678a4.159 4.159 0 0 1-.138-1.064l-.883-.462.418-1.586 1.008.032c.181-.309.4-.594.653-.847l-.293-.947 1.418-.823.679.723a3.9 3.9 0 0 1 1.058-.143l.467-.878 1.586.419-.032 1.007c.312.177.597.397.847.653l.947-.293.823 1.418-.733.688c.096.345.144.701.143 1.059l.878.467-.45 1.605-1.007-.032.012-.06z"/></g><path stroke="#D7F2FF" stroke-linecap="round" stroke-linejoin="round" stroke-opacity=".12" stroke-width=".465" d="M645.119 259.266a4.107 4.107 0 0 1-.648.852l.293.948-1.419.822-.678-.723a4.071 4.071 0 0 1-1.059.143l-.451.874-1.61-.445.032-1.008a4.164 4.164 0 0 1-.852-.647l-.909.344-.823-1.418.723-.678a4.159 4.159 0 0 1-.138-1.064l-.883-.462.418-1.586 1.008.032c.181-.309.4-.594.653-.847l-.293-.947 1.418-.823.679.723a3.9 3.9 0 0 1 1.058-.143l.467-.878 1.586.419-.032 1.007c.312.177.597.397.847.653l.947-.293.823 1.418-.733.688c.096.345.144.701.143 1.059l.878.467-.45 1.605-1.007-.032.012-.06z"/><g filter="url(#f)"><path fill="#18182D" d="m769.056 253.642-89.437 48.34a4.2 4.2 0 0 0-1.698 5.691l26.465 48.965a4.2 4.2 0 0 0 5.692 1.698l89.436-48.339a4.2 4.2 0 0 0 1.698-5.692l-26.465-48.965a4.2 4.2 0 0 0-5.691-1.698z"/></g><path stroke="#D7F2FF" stroke-linecap="round" stroke-linejoin="round" stroke-opacity=".31" stroke-width=".465" d="m769.056 253.642-89.437 48.34a4.2 4.2 0 0 0-1.698 5.691l26.465 48.965a4.2 4.2 0 0 0 5.692 1.698l89.436-48.339a4.2 4.2 0 0 0 1.698-5.692l-26.465-48.965a4.2 4.2 0 0 0-5.691-1.698z"/><g opacity=".41"><g filter="url(#g)"><path fill="#18182D" d="m788.404 298.114-82.167 44.419a3.167 3.167 0 0 1-2.417.251 3.177 3.177 0 0 1-1.886-1.532l-17.668-32.634a3.17 3.17 0 0 1 .326-3.514 3.18 3.18 0 0 1 .956-.789l82.172-44.414a3.174 3.174 0 0 1 4.298 1.287l17.658 32.633a3.173 3.173 0 0 1-1.272 4.293z"/></g><path stroke="#D7F2FF" stroke-linecap="round" stroke-linejoin="round" stroke-opacity=".31" stroke-width=".465" d="m788.404 298.114-82.167 44.419a3.167 3.167 0 0 1-2.417.251 3.177 3.177 0 0 1-1.886-1.532l-17.668-32.634a3.17 3.17 0 0 1 .326-3.514 3.18 3.18 0 0 1 .956-.789l82.172-44.414a3.174 3.174 0 0 1 4.298 1.287l17.658 32.633a3.173 3.173 0 0 1-1.272 4.293z"/></g><path fill="#18182D" stroke="#D7F2FF" stroke-linecap="round" stroke-linejoin="round" stroke-opacity=".31" stroke-width=".465" d="M710.129 353.246a2.082 2.082 0 1 1-2.824-.842 2.09 2.09 0 0 1 2.824.842z"/><path fill="#18182D" stroke="#D7F2FF" stroke-linecap="round" stroke-linejoin="round" stroke-opacity=".14" stroke-width=".465" d="m779.799 275.656-87.649 47.373 4.295 7.947 87.649-47.373-4.295-7.947z"/><g filter="url(#h)"><path fill="#18182D" d="m759.284 281.397-51.104 27.621a2.509 2.509 0 0 0-1.014 3.401l7.957 14.722a2.51 2.51 0 0 0 3.401 1.015l51.104-27.621a2.511 2.511 0 0 0 1.015-3.402l-7.957-14.722a2.51 2.51 0 0 0-3.402-1.014z"/></g><path stroke="#D7F2FF" stroke-linecap="round" stroke-linejoin="round" stroke-opacity=".31" stroke-width=".465" d="m759.284 281.397-51.104 27.621a2.509 2.509 0 0 0-1.014 3.401l7.957 14.722a2.51 2.51 0 0 0 3.401 1.015l51.104-27.621a2.511 2.511 0 0 0 1.015-3.402l-7.957-14.722a2.51 2.51 0 0 0-3.402-1.014z"/><path fill="#18182D" stroke="#D7F2FF" stroke-linecap="round" stroke-linejoin="round" stroke-opacity=".15" stroke-width=".465" d="m746.567 295.001-20.028 10.825 5.058 9.359 20.029-10.825-5.059-9.359zm39.467 22.292s-.053-.057-.207-.137c-.154-.081-.355-.254-.592-.423-.542-.4-1.316-.965-2.297-1.697-2.005-1.501-4.873-3.651-8.406-6.3l.146.01-26.244 14.244-26.632 14.343.065-.14 1.302 10.151.331 2.76.078.718c.015.172.023.253.012.253a.844.844 0 0 1-.052-.244l-.114-.715-.402-2.752-1.423-10.134-.007-.091.067-.063 26.568-14.411 26.293-14.162.062-.058.059.062 8.383 6.36c.965.757 1.708 1.331 2.274 1.777.241.195.433.347.561.452.066.059.125.125.175.197z"/><path fill="#18182D" stroke="#D7F2FF" stroke-linecap="round" stroke-linejoin="round" stroke-opacity=".31" stroke-width=".465" d="M752.533 325.587a2.078 2.078 0 0 1-1.218 2.979 2.08 2.08 0 0 1-2.685-1.775 2.086 2.086 0 0 1 1.856-2.286 2.09 2.09 0 0 1 1.529.456c.212.172.388.385.518.626z"/><path fill="#18182D" stroke="#D7F2FF" stroke-linecap="round" stroke-linejoin="round" stroke-opacity=".14" stroke-width=".465" d="M765.834 305.635c.068.072-9.082 5.119-20.384 11.227-11.301 6.108-20.511 10.996-20.574 10.888-.062-.108 9.076-5.114 20.383-11.227 11.308-6.113 20.522-10.976 20.575-10.888zm-1.574-30.342c.069.073-14.219 7.897-31.859 17.43-17.641 9.534-31.983 17.195-32.036 17.107-.053-.087 14.214-7.892 31.865-17.435 17.651-9.543 31.978-17.2 32.03-17.102zm-6.712-1.671c.069.073-12.196 6.801-27.358 14.996-15.161 8.195-27.492 14.769-27.54 14.677-.047-.092 12.197-6.801 27.364-15.001 15.167-8.199 27.477-14.775 27.534-14.672z"/><path fill="#18182D" stroke="#D7F2FF" stroke-linecap="round" stroke-linejoin="round" stroke-opacity=".31" stroke-width=".465" d="M747.006 300.451a8.262 8.262 0 0 1 .714-9.156 8.256 8.256 0 1 1-.714 9.156z"/><g filter="url(#i)"><path fill="#18182D" d="M757.733 298.441a3.811 3.811 0 0 1-.652.847l.297.953-1.423.817-.678-.722a3.908 3.908 0 0 1-1.059.143l-.462.883-1.605-.45.032-1.007a3.862 3.862 0 0 1-.847-.653l-.942.298-.828-1.424.723-.678a3.902 3.902 0 0 1-.143-1.059l-.873-.461.418-1.586 1.008.032c.178-.311.396-.598.648-.852l-.293-.948 1.419-.822.678.723a4.102 4.102 0 0 1 1.063-.138l.462-.883 1.605.449-.032 1.008c.311.178.597.396.852.647l.948-.292.823 1.418-.723.678c.092.346.14.702.143 1.059l.873.462-.445 1.61-1.008-.032.021-.02z"/></g><path stroke="#D7F2FF" stroke-linecap="round" stroke-linejoin="round" stroke-opacity=".31" stroke-width=".465" d="M757.733 298.441a3.811 3.811 0 0 1-.652.847l.297.953-1.423.817-.678-.722a3.908 3.908 0 0 1-1.059.143l-.462.883-1.605-.45.032-1.007a3.862 3.862 0 0 1-.847-.653l-.942.298-.828-1.424.723-.678a3.902 3.902 0 0 1-.143-1.059l-.873-.461.418-1.586 1.008.032c.178-.311.396-.598.648-.852l-.293-.948 1.419-.822.678.723a4.102 4.102 0 0 1 1.063-.138l.462-.883 1.605.449-.032 1.008c.311.178.597.396.852.647l.948-.292.823 1.418-.723.678c.092.346.14.702.143 1.059l.873.462-.445 1.61-1.008-.032.021-.02z"/><path fill="#18182D" stroke="#D7F2FF" stroke-linecap="round" stroke-linejoin="round" stroke-opacity=".31" stroke-width=".465" d="M716.975 317.153a8.255 8.255 0 0 1 9.45-11.989 8.262 8.262 0 0 1 5.093 11.717 8.25 8.25 0 0 1-9.595 4.168 8.263 8.263 0 0 1-4.948-3.896z"/><g filter="url(#j)"><path fill="#18182D" d="M727.698 315.148a4.133 4.133 0 0 1-.648.852l.293.947-1.419.823-.678-.723a4.071 4.071 0 0 1-1.059.143l-.451.874-1.61-.445.032-1.008a4.197 4.197 0 0 1-.853-.647l-.908.344-.823-1.418.723-.679a4.146 4.146 0 0 1-.138-1.063l-.883-.462.418-1.586 1.008.032c.181-.309.4-.594.653-.847l-.293-.947 1.418-.823.679.723a3.824 3.824 0 0 1 1.058-.143l.467-.878 1.586.418-.032 1.008c.312.177.597.396.847.653l.947-.293.823 1.418-.733.688c.096.345.144.701.143 1.059l.878.467-.45 1.605-1.008-.032.013-.06z"/></g><path stroke="#D7F2FF" stroke-linecap="round" stroke-linejoin="round" stroke-opacity=".31" stroke-width=".465" d="M727.698 315.148a4.133 4.133 0 0 1-.648.852l.293.947-1.419.823-.678-.723a4.071 4.071 0 0 1-1.059.143l-.451.874-1.61-.445.032-1.008a4.197 4.197 0 0 1-.853-.647l-.908.344-.823-1.418.723-.679a4.146 4.146 0 0 1-.138-1.063l-.883-.462.418-1.586 1.008.032c.181-.309.4-.594.653-.847l-.293-.947 1.418-.823.679.723a3.824 3.824 0 0 1 1.058-.143l.467-.878 1.586.418-.032 1.008c.312.177.597.396.847.653l.947-.293.823 1.418-.733.688c.096.345.144.701.143 1.059l.878.467-.45 1.605-1.008-.032.013-.06z"/><g filter="url(#k)"><path fill="#0E0E21" d="M190.621 390.925 49.615 331.037a6.329 6.329 0 0 0-8.299 3.351L8.53 411.586a6.329 6.329 0 0 0 3.35 8.299l141.006 59.888a6.329 6.329 0 0 0 8.299-3.351l32.788-77.198a6.33 6.33 0 0 0-3.351-8.299z"/></g><path stroke="#D7F2FF" stroke-linecap="round" stroke-linejoin="round" stroke-opacity=".12" stroke-width=".7" d="M190.621 390.925 49.615 331.037a6.329 6.329 0 0 0-8.299 3.351L8.53 411.586a6.329 6.329 0 0 0 3.35 8.299l141.006 59.888a6.329 6.329 0 0 0 8.299-3.351l32.788-77.198a6.33 6.33 0 0 0-3.351-8.299z"/><g opacity=".41"><g filter="url(#l)"><path fill="#0E0E21" d="M156.436 455.519 26.881 400.507a4.78 4.78 0 0 1-2.536-6.272l21.824-51.486a4.76 4.76 0 0 1 2.61-2.572 4.786 4.786 0 0 1 3.662.037l129.554 55.022a4.783 4.783 0 0 1 2.525 6.271l-21.833 51.474a4.784 4.784 0 0 1-6.251 2.538z"/></g><path stroke="#D7F2FF" stroke-linecap="round" stroke-linejoin="round" stroke-opacity=".12" stroke-width=".7" d="M156.436 455.519 26.881 400.507a4.78 4.78 0 0 1-2.536-6.272l21.824-51.486a4.76 4.76 0 0 1 2.61-2.572 4.786 4.786 0 0 1 3.662.037l129.554 55.022a4.783 4.783 0 0 1 2.525 6.271l-21.833 51.474a4.784 4.784 0 0 1-6.251 2.538z"/></g><path fill="#0E0E21" stroke="#D7F2FF" stroke-linecap="round" stroke-linejoin="round" stroke-opacity=".12" stroke-width=".7" d="M17.923 415.16a3.137 3.137 0 1 1-1.663-4.116 3.145 3.145 0 0 1 1.663 4.116z"/><path fill="#0E0E21" stroke="#D7F2FF" stroke-linecap="round" stroke-linejoin="round" stroke-opacity=".04" stroke-width=".7" d="M174.796 424.272 36.609 365.581l-5.322 12.53 138.187 58.691 5.322-12.53z"/><g filter="url(#m)"><path fill="#0E0E21" d="m148.749 405.508-80.57-34.22a3.782 3.782 0 0 0-4.96 2.002l-9.858 23.211a3.783 3.783 0 0 0 2.003 4.96l80.57 34.22a3.783 3.783 0 0 0 4.96-2.003l9.858-23.211a3.782 3.782 0 0 0-2.003-4.959z"/></g><path stroke="#D7F2FF" stroke-linecap="round" stroke-linejoin="round" stroke-opacity=".12" stroke-width=".7" d="m148.749 405.508-80.57-34.22a3.782 3.782 0 0 0-4.96 2.002l-9.858 23.211a3.783 3.783 0 0 0 2.003 4.96l80.57 34.22a3.783 3.783 0 0 0 4.96-2.003l9.858-23.211a3.782 3.782 0 0 0-2.003-4.959z"/><path fill="#0E0E21" stroke="#D7F2FF" stroke-linecap="round" stroke-linejoin="round" stroke-opacity=".05" stroke-width=".7" d="m120.773 403.321-31.577-13.412-6.267 14.755 31.577 13.412 6.267-14.755zm10.847 67.436s.017-.116-.032-.373c-.05-.257-.036-.657-.059-1.095-.038-1.015-.101-2.457-.161-4.3-.117-3.773-.281-9.171-.482-15.822l.126.181-41.447-17.518-41.927-17.881.225-.054-10.73 11.075-2.939 2.985-.773.767c-.189.179-.277.264-.286.252.064-.109.144-.207.237-.291l.736-.806 2.863-3.06 10.596-11.203.1-.095.14.02 41.946 17.743 41.395 17.651.128.019-.019.127.391 15.853c.015 1.847.039 3.262.045 4.349-.003.466-.002.835-.005 1.085a1.627 1.627 0 0 1-.068.391z"/><path fill="#0E0E21" stroke="#D7F2FF" stroke-linecap="round" stroke-linejoin="round" stroke-opacity=".12" stroke-width=".7" d="M90.36 439.099a3.137 3.137 0 1 1-5.774-2.454 3.137 3.137 0 0 1 5.774 2.454z"/><path fill="#0E0E21" stroke="#D7F2FF" stroke-linecap="round" stroke-linejoin="round" stroke-opacity=".04" stroke-width=".7" d="M126.36 436.007c-.021.149-14.565-5.883-32.383-13.451-17.818-7.569-32.233-13.82-32.164-13.995.069-.175 14.555 5.881 32.384 13.451 17.828 7.57 32.217 13.85 32.163 13.995zm34.256-30.376c-.022.148-22.667-9.323-50.478-21.136-27.811-11.813-50.316-21.503-50.263-21.647.053-.144 22.656 9.321 50.489 21.137 27.832 11.816 50.317 21.492 50.252 21.646zm-4.342-9.475c-.021.148-19.475-7.971-43.379-18.123-23.904-10.153-43.238-18.494-43.174-18.637.064-.142 19.475 7.971 43.389 18.125 23.915 10.154 43.231 18.471 43.164 18.635z"/><path fill="#0E0E21" stroke="#D7F2FF" stroke-linecap="round" stroke-linejoin="round" stroke-opacity=".12" stroke-width=".7" d="M114.767 408.961a12.442 12.442 0 1 1 23.06 9.349 12.442 12.442 0 0 1-23.06-9.349z"/><g filter="url(#n)"><path fill="#0E0E21" d="M127.218 419.705a5.758 5.758 0 0 1-1.611.028l-.842 1.246-2.301-.907.214-1.479a5.816 5.816 0 0 1-1.164-1.112l-1.474.286-.98-2.313 1.217-.909a5.72 5.72 0 0 1-.027-1.611l-1.238-.83.899-2.313 1.478.214c.316-.438.69-.829 1.113-1.164l-.277-1.462 2.261-.998.91 1.217a6.17 6.17 0 0 1 1.612-.038l.841-1.236 2.302.897-.214 1.478c.435.323.825.701 1.162 1.124l1.475-.287.979 2.313-1.217.91c.082.533.095 1.075.038 1.612l1.236.841-.897 2.302-1.478-.214a6.459 6.459 0 0 1-1.113 1.164l.277 1.462-2.314.99-.91-1.217.043.006z"/></g><path stroke="#D7F2FF" stroke-linecap="round" stroke-linejoin="round" stroke-opacity=".12" stroke-width=".7" d="M127.218 419.705a5.758 5.758 0 0 1-1.611.028l-.842 1.246-2.301-.907.214-1.479a5.816 5.816 0 0 1-1.164-1.112l-1.474.286-.98-2.313 1.217-.909a5.72 5.72 0 0 1-.027-1.611l-1.238-.83.899-2.313 1.478.214c.316-.438.69-.829 1.113-1.164l-.277-1.462 2.261-.998.91 1.217a6.17 6.17 0 0 1 1.612-.038l.841-1.236 2.302.897-.214 1.478c.435.323.825.701 1.162 1.124l1.475-.287.979 2.313-1.217.91c.082.533.095 1.075.038 1.612l1.236.841-.897 2.302-1.478-.214a6.459 6.459 0 0 1-1.113 1.164l.277 1.462-2.314.99-.91-1.217.043.006z"/><path fill="#0E0E21" stroke="#D7F2FF" stroke-linecap="round" stroke-linejoin="round" stroke-opacity=".12" stroke-width=".7" d="M66.866 389.294a12.446 12.446 0 0 1 11.455-7.766 12.44 12.44 0 0 1 12.288 14.819 12.44 12.44 0 0 1-23.68 2.437 12.454 12.454 0 0 1-.063-9.49z"/><g filter="url(#o)"><path fill="#0E0E21" d="M79.307 400.037a6.13 6.13 0 0 1-1.612.039l-.841 1.235-2.302-.897.213-1.478a6.208 6.208 0 0 1-1.163-1.113l-1.453.29-.99-2.315 1.217-.909a6.322 6.322 0 0 1-.039-1.613l-1.26-.746.897-2.302 1.478.213a6.26 6.26 0 0 1 1.124-1.162l-.286-1.474 2.26-.998.91 1.217a6.294 6.294 0 0 1 1.611-.028l.84-1.235 2.303.897-.214 1.478c.438.315.83.69 1.164 1.113l1.473-.276.998 2.261-1.217.91c.085.533.094 1.075.027 1.61l1.236.841-.897 2.302-1.5-.216c-.315.437-.69.829-1.112 1.163l.275 1.473-2.312.98-.91-1.217.082-.043z"/></g><path stroke="#D7F2FF" stroke-linecap="round" stroke-linejoin="round" stroke-opacity=".12" stroke-width=".7" d="M79.307 400.037a6.13 6.13 0 0 1-1.612.039l-.841 1.235-2.302-.897.213-1.478a6.208 6.208 0 0 1-1.163-1.113l-1.453.29-.99-2.315 1.217-.909a6.322 6.322 0 0 1-.039-1.613l-1.26-.746.897-2.302 1.478.213a6.26 6.26 0 0 1 1.124-1.162l-.286-1.474 2.26-.998.91 1.217a6.294 6.294 0 0 1 1.611-.028l.84-1.235 2.303.897-.214 1.478c.438.315.83.69 1.164 1.113l1.473-.276.998 2.261-1.217.91c.085.533.094 1.075.027 1.61l1.236.841-.897 2.302-1.5-.216c-.315.437-.69.829-1.112 1.163l.275 1.473-2.312.98-.91-1.217.082-.043z"/><g filter="url(#p)"><path fill="#0E0E21" d="m617.899 125.136-474.786 59.227c-10.832 1.351-18.518 11.228-17.167 22.06l32.426 259.937c1.351 10.832 11.228 18.518 22.06 17.167L655.218 424.3c10.832-1.352 18.518-11.228 17.166-22.06l-32.425-259.937c-1.352-10.832-11.228-18.518-22.06-17.167z"/></g><path stroke="#D7F2FF" stroke-linecap="round" stroke-linejoin="round" stroke-opacity=".13" stroke-width="2.186" d="m617.899 125.136-474.786 59.227c-10.832 1.351-18.518 11.228-17.167 22.06l32.426 259.937c1.351 10.832 11.228 18.518 22.06 17.167L655.218 424.3c10.832-1.352 18.518-11.228 17.166-22.06l-32.425-259.937c-1.352-10.832-11.228-18.518-22.06-17.167z"/><g opacity=".41"><g filter="url(#q)"><path fill="#0E0E21" d="m626.792 353.212-436.211 54.453a14.932 14.932 0 0 1-16.68-12.971l-21.742-173.291a14.9 14.9 0 0 1 12.97-16.68l436.224-54.421a14.937 14.937 0 0 1 16.648 12.983L639.7 336.558a14.936 14.936 0 0 1-12.908 16.654z"/></g><path stroke="#D7F2FF" stroke-linecap="round" stroke-linejoin="round" stroke-opacity=".3" stroke-width="2.186" d="m626.792 353.212-436.211 54.453a14.932 14.932 0 0 1-16.68-12.971l-21.742-173.291a14.9 14.9 0 0 1 12.97-16.68l436.224-54.421a14.937 14.937 0 0 1 16.648 12.983L639.7 336.558a14.936 14.936 0 0 1-12.908 16.654z"/></g><path fill="#0E0E21" stroke="#D7F2FF" stroke-linecap="round" stroke-linejoin="round" stroke-opacity=".52" stroke-width="2.186" d="M189.351 461.29a9.803 9.803 0 0 1-4.882 9.729 9.799 9.799 0 1 1-6.063-18.241 9.83 9.83 0 0 1 10.945 8.512zm471.95-57.748a9.801 9.801 0 0 1-10.43 10.984 9.797 9.797 0 0 1-8.593-6.683 9.802 9.802 0 0 1 2.883-10.497 9.797 9.797 0 0 1 5.195-2.316 9.83 9.83 0 0 1 10.945 8.512z"/><path fill="#fff" fill-opacity=".02" stroke="#D7F2FF" stroke-linecap="round" stroke-linejoin="round" stroke-opacity=".03" stroke-width="2.186" d="m627.417 240.025-465.295 58.043 5.263 42.19 465.295-58.043-5.263-42.19z"/><g filter="url(#r)"><path fill="#2A2A38" d="M527.642 230.158 256.35 264c-6.474.808-11.067 6.71-10.259 13.184l9.749 78.154c.807 6.474 6.71 11.067 13.184 10.259l271.291-33.842c6.474-.807 11.067-6.71 10.26-13.183l-9.75-78.154c-.807-6.474-6.71-11.067-13.183-10.26z"/></g><path stroke="#D7F2FF" stroke-linecap="round" stroke-linejoin="round" stroke-opacity=".09" stroke-width="2.186" d="M527.642 230.158 256.35 264c-6.474.808-11.067 6.71-10.259 13.184l9.749 78.154c.807 6.474 6.71 11.067 13.184 10.259l271.291-33.842c6.474-.807 11.067-6.71 10.26-13.183l-9.75-78.154c-.807-6.474-6.71-11.067-13.183-10.26z"/><path fill="#0E0E21" stroke="#D7F2FF" stroke-linecap="round" stroke-linejoin="round" stroke-opacity=".05" stroke-width="2.186" d="m448.636 268.1-106.325 13.264 6.197 49.682 106.326-13.263-6.198-49.683z"/><path fill="#0E0E21" stroke="#D7F2FF" stroke-linecap="round" stroke-linejoin="round" stroke-opacity=".16" stroke-width="2.186" d="M583.643 433.273s-.138-.342-.675-.958c-.537-.616-1.124-1.718-1.874-2.863-1.693-2.683-4.124-6.48-7.173-11.367a56140.622 56140.622 0 0 1-26.102-41.986l.624.292-139.425 17.64-141.288 17.412.523-.499-11.629 46.737-3.262 12.668-.885 3.286c-.229.779-.335 1.147-.378 1.128.002-.393.064-.784.185-1.159l.723-3.329 2.938-12.755 11.067-46.873.124-.412.405-.163 141.125-17.817 139.494-17.197.373-.15.151.373 25.902 42.211c2.938 4.968 5.219 8.753 6.938 11.679.725 1.263 1.306 2.259 1.687 2.938.19.369.335.76.432 1.164z"/><path fill="#0E0E21" stroke="#D7F2FF" stroke-linecap="round" stroke-linejoin="round" stroke-opacity=".12" stroke-width="2.186" d="M422.559 412.424a9.801 9.801 0 0 1-10.43 10.984 9.803 9.803 0 0 1-8.593-6.683 9.802 9.802 0 0 1 2.883-10.497 9.793 9.793 0 0 1 9.011-2.043 9.812 9.812 0 0 1 5.924 4.607 9.808 9.808 0 0 1 1.205 3.632z"/><path fill="#0E0E21" stroke="#D7F2FF" stroke-linecap="round" stroke-linejoin="round" stroke-opacity=".24" stroke-width="2.186" d="M514.965 347.641c.175.436-48.569 6.939-108.566 14.421-59.996 7.482-108.736 13.187-108.824 12.608-.088-.58 48.538-6.926 108.566-14.421 60.027-7.494 108.742-13.081 108.824-12.608zm44.924-135.749c.175.436-75.845 10.344-169.49 22.022-93.646 11.678-169.63 20.777-169.712 20.304-.081-.474 75.814-10.333 169.522-22.036 93.708-11.703 169.617-20.807 169.68-20.29zm-26.577-18.793c.175.436-65.104 8.993-145.591 19.034-80.488 10.041-145.793 17.813-145.844 17.327-.051-.486 65.104-8.993 145.623-19.046 80.518-10.054 145.736-17.863 145.812-17.315z"/><path fill="#0E0E21" stroke="#D7F2FF" stroke-linecap="round" stroke-linejoin="round" stroke-opacity=".71" stroke-width="2.186" d="M441.253 292.75a38.855 38.855 0 0 1 18.769-38.935 38.863 38.863 0 0 1 56.427 20.774 38.867 38.867 0 0 1-10.957 41.811 38.861 38.861 0 0 1-64.239-23.65zm-160.228 21.952a38.862 38.862 0 0 1 40.725-44.237 38.862 38.862 0 0 1 35.343 48.645 38.86 38.86 0 0 1-32.359 28.655 38.89 38.89 0 0 1-43.709-33.063z"/><g filter="url(#s)"><path fill="#0E0E21" d="m800.621 411.043-141.006-59.888a6.33 6.33 0 0 0-8.299 3.351l-32.787 77.198a6.328 6.328 0 0 0 3.351 8.299l141.005 59.888a6.328 6.328 0 0 0 8.299-3.351l32.788-77.198a6.33 6.33 0 0 0-3.351-8.299z"/></g><path stroke="#D7F2FF" stroke-linecap="round" stroke-linejoin="round" stroke-opacity=".12" stroke-width=".7" d="m800.621 411.043-141.006-59.888a6.33 6.33 0 0 0-8.299 3.351l-32.787 77.198a6.328 6.328 0 0 0 3.351 8.299l141.005 59.888a6.328 6.328 0 0 0 8.299-3.351l32.788-77.198a6.33 6.33 0 0 0-3.351-8.299z"/><g opacity=".41"><g filter="url(#t)"><path fill="#0E0E21" d="m766.436 475.637-129.555-55.012a4.78 4.78 0 0 1-2.536-6.272l21.824-51.486a4.767 4.767 0 0 1 4.444-2.919c.629.006 1.25.137 1.828.384l129.554 55.023a4.78 4.78 0 0 1 2.525 6.27l-21.833 51.474a4.78 4.78 0 0 1-6.251 2.538z"/></g><path stroke="#D7F2FF" stroke-linecap="round" stroke-linejoin="round" stroke-opacity=".12" stroke-width=".7" d="m766.436 475.637-129.555-55.012a4.78 4.78 0 0 1-2.536-6.272l21.824-51.486a4.767 4.767 0 0 1 4.444-2.919c.629.006 1.25.137 1.828.384l129.554 55.023a4.78 4.78 0 0 1 2.525 6.27l-21.833 51.474a4.78 4.78 0 0 1-6.251 2.538z"/></g><path fill="#0E0E21" stroke="#D7F2FF" stroke-linecap="round" stroke-linejoin="round" stroke-opacity=".12" stroke-width=".7" d="M627.923 435.278a3.138 3.138 0 1 1-1.663-4.116 3.145 3.145 0 0 1 1.663 4.116z"/><path fill="#0E0E21" stroke="#D7F2FF" stroke-linecap="round" stroke-linejoin="round" stroke-opacity=".04" stroke-width=".7" d="m784.796 444.39-138.187-58.691-5.322 12.531 138.187 58.69 5.322-12.53z"/><g filter="url(#u)"><path fill="#0E0E21" d="m758.749 425.626-80.57-34.22a3.782 3.782 0 0 0-4.96 2.003l-9.858 23.21a3.783 3.783 0 0 0 2.003 4.96l80.57 34.22a3.782 3.782 0 0 0 4.96-2.003l9.858-23.21a3.782 3.782 0 0 0-2.003-4.96z"/></g><path stroke="#D7F2FF" stroke-linecap="round" stroke-linejoin="round" stroke-opacity=".12" stroke-width=".7" d="m758.749 425.626-80.57-34.22a3.782 3.782 0 0 0-4.96 2.003l-9.858 23.21a3.783 3.783 0 0 0 2.003 4.96l80.57 34.22a3.782 3.782 0 0 0 4.96-2.003l9.858-23.21a3.782 3.782 0 0 0-2.003-4.96z"/><path fill="#0E0E21" stroke="#D7F2FF" stroke-linecap="round" stroke-linejoin="round" stroke-opacity=".05" stroke-width=".7" d="m730.773 423.439-31.577-13.412-6.267 14.755 31.577 13.412 6.267-14.755zm10.847 67.437s.017-.117-.032-.374c-.05-.257-.036-.657-.059-1.094-.038-1.015-.101-2.458-.161-4.301-.117-3.773-.281-9.171-.482-15.822l.126.181-41.447-17.518-41.927-17.88.225-.055-10.73 11.076-2.939 2.984-.773.767c-.189.179-.277.264-.286.252.064-.109.144-.207.237-.291l.735-.806 2.864-3.06 10.596-11.203.101-.094.138.02 41.947 17.742 41.395 17.652.128.018-.019.128.391 15.852c.015 1.848.039 3.262.045 4.349-.003.466-.002.836-.005 1.085a1.635 1.635 0 0 1-.068.392z"/><path fill="#0E0E21" stroke="#D7F2FF" stroke-linecap="round" stroke-linejoin="round" stroke-opacity=".12" stroke-width=".7" d="M700.36 459.217a3.145 3.145 0 0 1-2.916 1.91 3.138 3.138 0 1 1 2.916-1.91z"/><path fill="#0E0E21" stroke="#D7F2FF" stroke-linecap="round" stroke-linejoin="round" stroke-opacity=".04" stroke-width=".7" d="M736.36 456.125c-.021.149-14.565-5.883-32.383-13.451-17.818-7.569-32.233-13.82-32.164-13.995.069-.174 14.555 5.881 32.384 13.451 17.828 7.57 32.217 13.851 32.163 13.995zm34.256-30.376c-.022.149-22.667-9.322-50.478-21.136-27.811-11.813-50.316-21.502-50.263-21.647.054-.144 22.656 9.321 50.489 21.137 27.832 11.816 50.317 21.492 50.252 21.646zm-4.342-9.475c-.021.149-19.475-7.971-43.379-18.123-23.904-10.152-43.238-18.494-43.174-18.636.064-.143 19.475 7.97 43.389 18.124 23.915 10.154 43.231 18.471 43.164 18.635z"/><path fill="#0E0E21" stroke="#D7F2FF" stroke-linecap="round" stroke-linejoin="round" stroke-opacity=".12" stroke-width=".7" d="M724.767 429.079a12.44 12.44 0 0 1 23.002-.141 12.44 12.44 0 0 1-9.012 17.013 12.444 12.444 0 0 1-13.99-16.872z"/><g filter="url(#v)"><path fill="#0E0E21" d="M737.218 439.824a5.796 5.796 0 0 1-1.611.027l-.842 1.247-2.301-.908.214-1.478a5.849 5.849 0 0 1-1.164-1.113l-1.474.286-.98-2.312 1.217-.91a5.72 5.72 0 0 1-.027-1.611l-1.238-.83.899-2.313 1.478.214c.316-.438.69-.829 1.113-1.164l-.277-1.462 2.261-.998.91 1.217a6.17 6.17 0 0 1 1.612-.038l.841-1.236 2.302.897-.214 1.479c.435.322.825.7 1.162 1.123l1.475-.287.979 2.313-1.217.91a6.26 6.26 0 0 1 .038 1.612l1.236.841-.897 2.302-1.478-.213a6.486 6.486 0 0 1-1.113 1.163l.277 1.462-2.314.991-.91-1.218.043.007z"/></g><path stroke="#D7F2FF" stroke-linecap="round" stroke-linejoin="round" stroke-opacity=".12" stroke-width=".7" d="M737.218 439.824a5.796 5.796 0 0 1-1.611.027l-.842 1.247-2.301-.908.214-1.478a5.849 5.849 0 0 1-1.164-1.113l-1.474.286-.98-2.312 1.217-.91a5.72 5.72 0 0 1-.027-1.611l-1.238-.83.899-2.313 1.478.214c.316-.438.69-.829 1.113-1.164l-.277-1.462 2.261-.998.91 1.217a6.17 6.17 0 0 1 1.612-.038l.841-1.236 2.302.897-.214 1.479c.435.322.825.7 1.162 1.123l1.475-.287.979 2.313-1.217.91a6.26 6.26 0 0 1 .038 1.612l1.236.841-.897 2.302-1.478-.213a6.486 6.486 0 0 1-1.113 1.163l.277 1.462-2.314.991-.91-1.218.043.007z"/><path fill="#0E0E21" stroke="#D7F2FF" stroke-linecap="round" stroke-linejoin="round" stroke-opacity=".12" stroke-width=".7" d="M676.866 409.412a12.44 12.44 0 0 1 11.455-7.766 12.44 12.44 0 0 1 8.903 21.21 12.439 12.439 0 0 1-20.296-3.954 12.459 12.459 0 0 1-.062-9.49z"/><g filter="url(#w)"><path fill="#0E0E21" d="M689.307 420.155a6.128 6.128 0 0 1-1.612.039l-.841 1.235-2.302-.897.213-1.478a6.225 6.225 0 0 1-1.163-1.113l-1.453.29-.99-2.314 1.217-.91a6.313 6.313 0 0 1-.039-1.613l-1.26-.746.897-2.302 1.479.213c.322-.434.7-.825 1.123-1.162l-.287-1.474 2.262-.998.909 1.217a6.342 6.342 0 0 1 1.611-.028l.841-1.235 2.302.897-.214 1.478c.438.316.829.69 1.164 1.113l1.473-.276.998 2.261-1.217.91a5.72 5.72 0 0 1 .027 1.611l1.236.84-.897 2.303-1.5-.217a5.843 5.843 0 0 1-1.112 1.164l.275 1.472-2.312.98-.91-1.217.082-.043z"/></g><path stroke="#D7F2FF" stroke-linecap="round" stroke-linejoin="round" stroke-opacity=".12" stroke-width=".7" d="M689.307 420.155a6.128 6.128 0 0 1-1.612.039l-.841 1.235-2.302-.897.213-1.478a6.225 6.225 0 0 1-1.163-1.113l-1.453.29-.99-2.314 1.217-.91a6.313 6.313 0 0 1-.039-1.613l-1.26-.746.897-2.302 1.479.213c.322-.434.7-.825 1.123-1.162l-.287-1.474 2.262-.998.909 1.217a6.342 6.342 0 0 1 1.611-.028l.841-1.235 2.302.897-.214 1.478c.438.316.829.69 1.164 1.113l1.473-.276.998 2.261-1.217.91a5.72 5.72 0 0 1 .027 1.611l1.236.84-.897 2.303-1.5-.217a5.843 5.843 0 0 1-1.112 1.164l.275 1.472-2.312.98-.91-1.217.082-.043z"/><g filter="url(#x)"><path fill="#202036" d="m155.477 228.642-89.437 48.34a4.2 4.2 0 0 0-1.698 5.691l26.465 48.965a4.2 4.2 0 0 0 5.692 1.698l89.436-48.339a4.2 4.2 0 0 0 1.698-5.692l-26.465-48.965a4.2 4.2 0 0 0-5.691-1.698z"/></g><path stroke="#D7F2FF" stroke-linecap="round" stroke-linejoin="round" stroke-opacity=".31" stroke-width=".465" d="m155.477 228.642-89.437 48.34a4.2 4.2 0 0 0-1.698 5.691l26.465 48.965a4.2 4.2 0 0 0 5.692 1.698l89.436-48.339a4.2 4.2 0 0 0 1.698-5.692l-26.465-48.965a4.2 4.2 0 0 0-5.691-1.698z"/><g opacity=".41"><g filter="url(#y)"><path fill="#202036" d="m174.825 273.114-82.167 44.419a3.164 3.164 0 0 1-2.417.251 3.183 3.183 0 0 1-1.886-1.532l-17.668-32.634a3.172 3.172 0 0 1 .326-3.514 3.18 3.18 0 0 1 .956-.789l82.172-44.414a3.174 3.174 0 0 1 4.297 1.287l17.658 32.633a3.173 3.173 0 0 1-1.271 4.293z"/></g><path stroke="#D7F2FF" stroke-linecap="round" stroke-linejoin="round" stroke-opacity=".31" stroke-width=".465" d="m174.825 273.114-82.167 44.419a3.164 3.164 0 0 1-2.417.251 3.183 3.183 0 0 1-1.886-1.532l-17.668-32.634a3.172 3.172 0 0 1 .326-3.514 3.18 3.18 0 0 1 .956-.789l82.172-44.414a3.174 3.174 0 0 1 4.297 1.287l17.658 32.633a3.173 3.173 0 0 1-1.271 4.293z"/></g><path fill="#202036" stroke="#D7F2FF" stroke-linecap="round" stroke-linejoin="round" stroke-opacity=".31" stroke-width=".465" d="M96.55 328.246a2.081 2.081 0 1 1-2.824-.842 2.088 2.088 0 0 1 2.824.842z"/><path fill="#202036" stroke="#D7F2FF" stroke-linecap="round" stroke-linejoin="round" stroke-opacity=".14" stroke-width=".465" d="m166.22 250.656-87.65 47.373 4.296 7.947 87.649-47.373-4.295-7.947z"/><g filter="url(#z)"><path fill="#202036" d="m145.705 256.397-51.104 27.621a2.51 2.51 0 0 0-1.014 3.401l7.957 14.722a2.51 2.51 0 0 0 3.401 1.015l51.104-27.621a2.511 2.511 0 0 0 1.015-3.402l-7.958-14.722a2.509 2.509 0 0 0-3.401-1.014z"/></g><path stroke="#D7F2FF" stroke-linecap="round" stroke-linejoin="round" stroke-opacity=".31" stroke-width=".465" d="m145.705 256.397-51.104 27.621a2.51 2.51 0 0 0-1.014 3.401l7.957 14.722a2.51 2.51 0 0 0 3.401 1.015l51.104-27.621a2.511 2.511 0 0 0 1.015-3.402l-7.958-14.722a2.509 2.509 0 0 0-3.401-1.014z"/><path fill="#202036" stroke="#D7F2FF" stroke-linecap="round" stroke-linejoin="round" stroke-opacity=".15" stroke-width=".465" d="m132.988 270.001-20.029 10.825 5.059 9.359 20.029-10.825-5.059-9.359zm39.467 22.292s-.054-.057-.207-.137c-.154-.081-.355-.254-.592-.423-.542-.4-1.316-.965-2.297-1.697-2.005-1.501-4.873-3.651-8.406-6.3l.146.01-26.244 14.244-26.632 14.343.065-.14 1.302 10.151.331 2.76.078.718c.015.172.022.253.012.253a.812.812 0 0 1-.052-.244l-.114-.715-.402-2.752-1.423-10.134-.007-.091.067-.063 26.568-14.411 26.292-14.162.063-.058.058.062 8.384 6.36c.965.757 1.708 1.331 2.274 1.777.241.195.433.347.561.452.066.059.125.125.175.197z"/><path fill="#202036" stroke="#D7F2FF" stroke-linecap="round" stroke-linejoin="round" stroke-opacity=".31" stroke-width=".465" d="M138.954 300.587a2.086 2.086 0 0 1-1.218 2.979 2.088 2.088 0 0 1-2.217-.661 2.086 2.086 0 0 1 1.388-3.4 2.092 2.092 0 0 1 1.529.456c.212.172.388.385.518.626z"/><path fill="#202036" stroke="#D7F2FF" stroke-linecap="round" stroke-linejoin="round" stroke-opacity=".14" stroke-width=".465" d="M152.254 280.635c.069.072-9.081 5.119-20.383 11.227-11.302 6.108-20.512 10.996-20.574 10.888-.062-.108 9.076-5.114 20.383-11.227 11.307-6.113 20.522-10.976 20.574-10.888zm-1.573-30.342c.069.073-14.219 7.897-31.859 17.43-17.641 9.534-31.983 17.195-32.036 17.107-.053-.087 14.214-7.892 31.865-17.435 17.651-9.543 31.978-17.2 32.03-17.102zm-6.712-1.671c.069.073-12.196 6.801-27.358 14.996s-27.492 14.769-27.54 14.677c-.047-.092 12.197-6.801 27.364-15.001 15.166-8.199 27.477-14.775 27.534-14.672z"/><path fill="#202036" stroke="#D7F2FF" stroke-linecap="round" stroke-linejoin="round" stroke-opacity=".31" stroke-width=".465" d="M133.427 275.451a8.254 8.254 0 0 1 .714-9.156 8.256 8.256 0 1 1-.714 9.156z"/><g filter="url(#A)"><path fill="#202036" d="M144.154 273.441a3.811 3.811 0 0 1-.652.847l.297.953-1.423.817-.678-.722a3.908 3.908 0 0 1-1.059.143l-.462.883-1.605-.45.032-1.007a3.839 3.839 0 0 1-.847-.653l-.942.298-.828-1.424.723-.678a3.902 3.902 0 0 1-.143-1.059l-.873-.461.418-1.586 1.008.032c.178-.311.396-.598.648-.852l-.293-.948 1.418-.822.679.723a4.102 4.102 0 0 1 1.063-.138l.462-.883 1.605.449-.032 1.008c.311.178.597.396.852.647l.948-.292.823 1.418-.723.678c.091.346.139.702.143 1.059l.873.462-.445 1.61-1.008-.032.021-.02z"/></g><path stroke="#D7F2FF" stroke-linecap="round" stroke-linejoin="round" stroke-opacity=".31" stroke-width=".465" d="M144.154 273.441a3.811 3.811 0 0 1-.652.847l.297.953-1.423.817-.678-.722a3.908 3.908 0 0 1-1.059.143l-.462.883-1.605-.45.032-1.007a3.839 3.839 0 0 1-.847-.653l-.942.298-.828-1.424.723-.678a3.902 3.902 0 0 1-.143-1.059l-.873-.461.418-1.586 1.008.032c.178-.311.396-.598.648-.852l-.293-.948 1.418-.822.679.723a4.102 4.102 0 0 1 1.063-.138l.462-.883 1.605.449-.032 1.008c.311.178.597.396.852.647l.948-.292.823 1.418-.723.678c.091.346.139.702.143 1.059l.873.462-.445 1.61-1.008-.032.021-.02z"/><path fill="#202036" stroke="#D7F2FF" stroke-linecap="round" stroke-linejoin="round" stroke-opacity=".31" stroke-width=".465" d="M103.396 292.153a8.26 8.26 0 0 1 .714-9.156 8.256 8.256 0 1 1-.714 9.156z"/><g filter="url(#B)"><path fill="#202036" d="M114.118 290.148a4.094 4.094 0 0 1-.647.852l.293.947-1.419.823-.678-.723a4.071 4.071 0 0 1-1.059.143l-.451.874-1.611-.445.033-1.008a4.197 4.197 0 0 1-.853-.647l-.908.344-.823-1.418.723-.679a4.146 4.146 0 0 1-.138-1.063l-.883-.462.418-1.586 1.008.032c.181-.309.4-.594.653-.847l-.293-.947 1.418-.823.678.723a3.83 3.83 0 0 1 1.059-.143l.467-.878 1.586.418-.032 1.008c.311.177.597.396.847.653l.947-.293.823 1.418-.733.688c.096.345.144.701.143 1.059l.878.467-.45 1.605-1.008-.032.012-.06z"/></g><path stroke="#D7F2FF" stroke-linecap="round" stroke-linejoin="round" stroke-opacity=".31" stroke-width=".465" d="M114.118 290.148a4.094 4.094 0 0 1-.647.852l.293.947-1.419.823-.678-.723a4.071 4.071 0 0 1-1.059.143l-.451.874-1.611-.445.033-1.008a4.197 4.197 0 0 1-.853-.647l-.908.344-.823-1.418.723-.679a4.146 4.146 0 0 1-.138-1.063l-.883-.462.418-1.586 1.008.032c.181-.309.4-.594.653-.847l-.293-.947 1.418-.823.678.723a3.83 3.83 0 0 1 1.059-.143l.467-.878 1.586.418-.032 1.008c.311.177.597.396.847.653l.947-.293.823 1.418-.733.688c.096.345.144.701.143 1.059l.878.467-.45 1.605-1.008-.032.012-.06z"/><defs><filter id="a" width="124.767" height="106.17" x="594.604" y="197.022" color-interpolation-filters="sRGB" filterUnits="userSpaceOnUse"><feFlood flood-opacity="0" result="BackgroundImageFix"/><feBlend in="SourceGraphic" in2="BackgroundImageFix" result="shape"/><feColorMatrix in="SourceAlpha" result="hardAlpha" values="0 0 0 0 0 0 0 0 0 0 0 0 0 0 0 0 0 0 127 0"/><feOffset/><feGaussianBlur stdDeviation="8.627"/><feComposite in2="hardAlpha" k2="-1" k3="1" operator="arithmetic"/><feColorMatrix values="0 0 0 0 1 0 0 0 0 1 0 0 0 0 1 0 0 0 0.07 0"/><feBlend in2="shape" result="effect1_innerShadow_135_3"/></filter><filter id="b" width="106.641" height="83.859" x="601.069" y="203.407" color-interpolation-filters="sRGB" filterUnits="userSpaceOnUse"><feFlood flood-opacity="0" result="BackgroundImageFix"/><feBlend in="SourceGraphic" in2="BackgroundImageFix" result="shape"/><feColorMatrix in="SourceAlpha" result="hardAlpha" values="0 0 0 0 0 0 0 0 0 0 0 0 0 0 0 0 0 0 127 0"/><feOffset/><feGaussianBlur stdDeviation="8.627"/><feComposite in2="hardAlpha" k2="-1" k3="1" operator="arithmetic"/><feColorMatrix values="0 0 0 0 1 0 0 0 0 1 0 0 0 0 1 0 0 0 0.1 0"/><feBlend in2="shape" result="effect1_innerShadow_135_3"/></filter><filter id="c" width="64.546" height="47.829" x="624.052" y="224.98" color-interpolation-filters="sRGB" filterUnits="userSpaceOnUse"><feFlood flood-opacity="0" result="BackgroundImageFix"/><feBlend in="SourceGraphic" in2="BackgroundImageFix" result="shape"/><feColorMatrix in="SourceAlpha" result="hardAlpha" values="0 0 0 0 0 0 0 0 0 0 0 0 0 0 0 0 0 0 127 0"/><feOffset/><feGaussianBlur stdDeviation="8.627"/><feComposite in2="hardAlpha" k2="-1" k3="1" operator="arithmetic"/><feColorMatrix values="0 0 0 0 1 0 0 0 0 1 0 0 0 0 1 0 0 0 0.1 0"/><feBlend in2="shape" result="effect1_innerShadow_135_3"/></filter><filter id="d" width="10.357" height="10.373" x="666.462" y="235.339" color-interpolation-filters="sRGB" filterUnits="userSpaceOnUse"><feFlood flood-opacity="0" result="BackgroundImageFix"/><feBlend in="SourceGraphic" in2="BackgroundImageFix" result="shape"/><feColorMatrix in="SourceAlpha" result="hardAlpha" values="0 0 0 0 0 0 0 0 0 0 0 0 0 0 0 0 0 0 127 0"/><feOffset/><feGaussianBlur stdDeviation="8.627"/><feComposite in2="hardAlpha" k2="-1" k3="1" operator="arithmetic"/><feColorMatrix values="0 0 0 0 1 0 0 0 0 1 0 0 0 0 1 0 0 0 0.1 0"/><feBlend in2="shape" result="effect1_innerShadow_135_3"/></filter><filter id="e" width="10.332" height="10.312" x="636.465" y="252.103" color-interpolation-filters="sRGB" filterUnits="userSpaceOnUse"><feFlood flood-opacity="0" result="BackgroundImageFix"/><feBlend in="SourceGraphic" in2="BackgroundImageFix" result="shape"/><feColorMatrix in="SourceAlpha" result="hardAlpha" values="0 0 0 0 0 0 0 0 0 0 0 0 0 0 0 0 0 0 127 0"/><feOffset/><feGaussianBlur stdDeviation="8.627"/><feComposite in2="hardAlpha" k2="-1" k3="1" operator="arithmetic"/><feColorMatrix values="0 0 0 0 1 0 0 0 0 1 0 0 0 0 1 0 0 0 0.1 0"/><feBlend in2="shape" result="effect1_innerShadow_135_3"/></filter><filter id="f" width="124.767" height="106.17" x="677.183" y="252.904" color-interpolation-filters="sRGB" filterUnits="userSpaceOnUse"><feFlood flood-opacity="0" result="BackgroundImageFix"/><feBlend in="SourceGraphic" in2="BackgroundImageFix" result="shape"/><feColorMatrix in="SourceAlpha" result="hardAlpha" values="0 0 0 0 0 0 0 0 0 0 0 0 0 0 0 0 0 0 127 0"/><feOffset/><feGaussianBlur stdDeviation="8.627"/><feComposite in2="hardAlpha" k2="-1" k3="1" operator="arithmetic"/><feColorMatrix values="0 0 0 0 1 0 0 0 0 1 0 0 0 0 1 0 0 0 0.07 0"/><feBlend in2="shape" result="effect1_innerShadow_135_3"/></filter><filter id="g" width="106.641" height="83.859" x="683.648" y="259.289" color-interpolation-filters="sRGB" filterUnits="userSpaceOnUse"><feFlood flood-opacity="0" result="BackgroundImageFix"/><feBlend in="SourceGraphic" in2="BackgroundImageFix" result="shape"/><feColorMatrix in="SourceAlpha" result="hardAlpha" values="0 0 0 0 0 0 0 0 0 0 0 0 0 0 0 0 0 0 127 0"/><feOffset/><feGaussianBlur stdDeviation="8.627"/><feComposite in2="hardAlpha" k2="-1" k3="1" operator="arithmetic"/><feColorMatrix values="0 0 0 0 1 0 0 0 0 1 0 0 0 0 1 0 0 0 0.1 0"/><feBlend in2="shape" result="effect1_innerShadow_135_3"/></filter><filter id="h" width="64.546" height="47.829" x="706.631" y="280.862" color-interpolation-filters="sRGB" filterUnits="userSpaceOnUse"><feFlood flood-opacity="0" result="BackgroundImageFix"/><feBlend in="SourceGraphic" in2="BackgroundImageFix" result="shape"/><feColorMatrix in="SourceAlpha" result="hardAlpha" values="0 0 0 0 0 0 0 0 0 0 0 0 0 0 0 0 0 0 127 0"/><feOffset/><feGaussianBlur stdDeviation="8.627"/><feComposite in2="hardAlpha" k2="-1" k3="1" operator="arithmetic"/><feColorMatrix values="0 0 0 0 1 0 0 0 0 1 0 0 0 0 1 0 0 0 0.1 0"/><feBlend in2="shape" result="effect1_innerShadow_135_3"/></filter><filter id="i" width="10.357" height="10.373" x="749.041" y="291.221" color-interpolation-filters="sRGB" filterUnits="userSpaceOnUse"><feFlood flood-opacity="0" result="BackgroundImageFix"/><feBlend in="SourceGraphic" in2="BackgroundImageFix" result="shape"/><feColorMatrix in="SourceAlpha" result="hardAlpha" values="0 0 0 0 0 0 0 0 0 0 0 0 0 0 0 0 0 0 127 0"/><feOffset/><feGaussianBlur stdDeviation="8.627"/><feComposite in2="hardAlpha" k2="-1" k3="1" operator="arithmetic"/><feColorMatrix values="0 0 0 0 1 0 0 0 0 1 0 0 0 0 1 0 0 0 0.1 0"/><feBlend in2="shape" result="effect1_innerShadow_135_3"/></filter><filter id="j" width="10.332" height="10.312" x="719.043" y="307.984" color-interpolation-filters="sRGB" filterUnits="userSpaceOnUse"><feFlood flood-opacity="0" result="BackgroundImageFix"/><feBlend in="SourceGraphic" in2="BackgroundImageFix" result="shape"/><feColorMatrix in="SourceAlpha" result="hardAlpha" values="0 0 0 0 0 0 0 0 0 0 0 0 0 0 0 0 0 0 127 0"/><feOffset/><feGaussianBlur stdDeviation="8.627"/><feComposite in2="hardAlpha" k2="-1" k3="1" operator="arithmetic"/><feColorMatrix values="0 0 0 0 1 0 0 0 0 1 0 0 0 0 1 0 0 0 0.1 0"/><feBlend in2="shape" result="effect1_innerShadow_135_3"/></filter><filter id="k" width="187.154" height="150.447" x="7.673" y="330.182" color-interpolation-filters="sRGB" filterUnits="userSpaceOnUse"><feFlood flood-opacity="0" result="BackgroundImageFix"/><feBlend in="SourceGraphic" in2="BackgroundImageFix" result="shape"/><feColorMatrix in="SourceAlpha" result="hardAlpha" values="0 0 0 0 0 0 0 0 0 0 0 0 0 0 0 0 0 0 127 0"/><feOffset/><feGaussianBlur stdDeviation="13"/><feComposite in2="hardAlpha" k2="-1" k3="1" operator="arithmetic"/><feColorMatrix values="0 0 0 0 1 0 0 0 0 1 0 0 0 0 1 0 0 0 0.07 0"/><feBlend in2="shape" result="effect1_innerShadow_135_3"/></filter><filter id="l" width="161.637" height="116.762" x="23.615" y="339.48" color-interpolation-filters="sRGB" filterUnits="userSpaceOnUse"><feFlood flood-opacity="0" result="BackgroundImageFix"/><feBlend in="SourceGraphic" in2="BackgroundImageFix" result="shape"/><feColorMatrix in="SourceAlpha" result="hardAlpha" values="0 0 0 0 0 0 0 0 0 0 0 0 0 0 0 0 0 0 127 0"/><feOffset/><feGaussianBlur stdDeviation="13"/><feComposite in2="hardAlpha" k2="-1" k3="1" operator="arithmetic"/><feColorMatrix values="0 0 0 0 1 0 0 0 0 1 0 0 0 0 1 0 0 0 0.1 0"/><feBlend in2="shape" result="effect1_innerShadow_135_3"/></filter><filter id="m" width="98.695" height="65.697" x="52.709" y="370.636" color-interpolation-filters="sRGB" filterUnits="userSpaceOnUse"><feFlood flood-opacity="0" result="BackgroundImageFix"/><feBlend in="SourceGraphic" in2="BackgroundImageFix" result="shape"/><feColorMatrix in="SourceAlpha" result="hardAlpha" values="0 0 0 0 0 0 0 0 0 0 0 0 0 0 0 0 0 0 127 0"/><feOffset/><feGaussianBlur stdDeviation="13"/><feComposite in2="hardAlpha" k2="-1" k3="1" operator="arithmetic"/><feColorMatrix values="0 0 0 0 1 0 0 0 0 1 0 0 0 0 1 0 0 0 0.1 0"/><feBlend in2="shape" result="effect1_innerShadow_135_3"/></filter><filter id="n" width="15.298" height="15.355" x="118.662" y="405.974" color-interpolation-filters="sRGB" filterUnits="userSpaceOnUse"><feFlood flood-opacity="0" result="BackgroundImageFix"/><feBlend in="SourceGraphic" in2="BackgroundImageFix" result="shape"/><feColorMatrix in="SourceAlpha" result="hardAlpha" values="0 0 0 0 0 0 0 0 0 0 0 0 0 0 0 0 0 0 127 0"/><feOffset/><feGaussianBlur stdDeviation="13"/><feComposite in2="hardAlpha" k2="-1" k3="1" operator="arithmetic"/><feColorMatrix values="0 0 0 0 1 0 0 0 0 1 0 0 0 0 1 0 0 0 0.1 0"/><feBlend in2="shape" result="effect1_innerShadow_135_3"/></filter><filter id="o" width="15.304" height="15.251" x="70.727" y="386.411" color-interpolation-filters="sRGB" filterUnits="userSpaceOnUse"><feFlood flood-opacity="0" result="BackgroundImageFix"/><feBlend in="SourceGraphic" in2="BackgroundImageFix" result="shape"/><feColorMatrix in="SourceAlpha" result="hardAlpha" values="0 0 0 0 0 0 0 0 0 0 0 0 0 0 0 0 0 0 127 0"/><feOffset/><feGaussianBlur stdDeviation="13"/><feComposite in2="hardAlpha" k2="-1" k3="1" operator="arithmetic"/><feColorMatrix values="0 0 0 0 1 0 0 0 0 1 0 0 0 0 1 0 0 0 0.1 0"/><feBlend in2="shape" result="effect1_innerShadow_135_3"/></filter><filter id="p" width="548.933" height="360.885" x="124.699" y="123.889" color-interpolation-filters="sRGB" filterUnits="userSpaceOnUse"><feFlood flood-opacity="0" result="BackgroundImageFix"/><feBlend in="SourceGraphic" in2="BackgroundImageFix" result="shape"/><feColorMatrix in="SourceAlpha" result="hardAlpha" values="0 0 0 0 0 0 0 0 0 0 0 0 0 0 0 0 0 0 127 0"/><feOffset/><feGaussianBlur stdDeviation="40.602"/><feComposite in2="hardAlpha" k2="-1" k3="1" operator="arithmetic"/><feColorMatrix values="0 0 0 0 1 0 0 0 0 1 0 0 0 0 1 0 0 0 0.07 0"/><feBlend in2="shape" result="effect1_innerShadow_135_3"/></filter><filter id="q" width="489.962" height="259.777" x="150.945" y="149.097" color-interpolation-filters="sRGB" filterUnits="userSpaceOnUse"><feFlood flood-opacity="0" result="BackgroundImageFix"/><feBlend in="SourceGraphic" in2="BackgroundImageFix" result="shape"/><feColorMatrix in="SourceAlpha" result="hardAlpha" values="0 0 0 0 0 0 0 0 0 0 0 0 0 0 0 0 0 0 127 0"/><feOffset/><feGaussianBlur stdDeviation="40.602"/><feComposite in2="hardAlpha" k2="-1" k3="1" operator="arithmetic"/><feColorMatrix values="0 0 0 0 1 0 0 0 0 1 0 0 0 0 1 0 0 0 0.28 0"/><feBlend in2="shape" result="effect1_innerShadow_135_3"/></filter><filter id="r" width="306.855" height="137.81" x="244.905" y="228.973" color-interpolation-filters="sRGB" filterUnits="userSpaceOnUse"><feFlood flood-opacity="0" result="BackgroundImageFix"/><feBlend in="SourceGraphic" in2="BackgroundImageFix" result="shape"/><feColorMatrix in="SourceAlpha" result="hardAlpha" values="0 0 0 0 0 0 0 0 0 0 0 0 0 0 0 0 0 0 127 0"/><feOffset/><feGaussianBlur stdDeviation="40.602"/><feComposite in2="hardAlpha" k2="-1" k3="1" operator="arithmetic"/><feColorMatrix values="0 0 0 0 1 0 0 0 0 1 0 0 0 0 1 0 0 0 0.1 0"/><feBlend in2="shape" result="effect1_innerShadow_135_3"/></filter><filter id="s" width="187.154" height="150.447" x="617.673" y="350.3" color-interpolation-filters="sRGB" filterUnits="userSpaceOnUse"><feFlood flood-opacity="0" result="BackgroundImageFix"/><feBlend in="SourceGraphic" in2="BackgroundImageFix" result="shape"/><feColorMatrix in="SourceAlpha" result="hardAlpha" values="0 0 0 0 0 0 0 0 0 0 0 0 0 0 0 0 0 0 127 0"/><feOffset/><feGaussianBlur stdDeviation="13"/><feComposite in2="hardAlpha" k2="-1" k3="1" operator="arithmetic"/><feColorMatrix values="0 0 0 0 1 0 0 0 0 1 0 0 0 0 1 0 0 0 0.07 0"/><feBlend in2="shape" result="effect1_innerShadow_135_3"/></filter><filter id="t" width="161.636" height="116.762" x="633.615" y="359.598" color-interpolation-filters="sRGB" filterUnits="userSpaceOnUse"><feFlood flood-opacity="0" result="BackgroundImageFix"/><feBlend in="SourceGraphic" in2="BackgroundImageFix" result="shape"/><feColorMatrix in="SourceAlpha" result="hardAlpha" values="0 0 0 0 0 0 0 0 0 0 0 0 0 0 0 0 0 0 127 0"/><feOffset/><feGaussianBlur stdDeviation="13"/><feComposite in2="hardAlpha" k2="-1" k3="1" operator="arithmetic"/><feColorMatrix values="0 0 0 0 1 0 0 0 0 1 0 0 0 0 1 0 0 0 0.1 0"/><feBlend in2="shape" result="effect1_innerShadow_135_3"/></filter><filter id="u" width="98.695" height="65.697" x="662.709" y="390.754" color-interpolation-filters="sRGB" filterUnits="userSpaceOnUse"><feFlood flood-opacity="0" result="BackgroundImageFix"/><feBlend in="SourceGraphic" in2="BackgroundImageFix" result="shape"/><feColorMatrix in="SourceAlpha" result="hardAlpha" values="0 0 0 0 0 0 0 0 0 0 0 0 0 0 0 0 0 0 127 0"/><feOffset/><feGaussianBlur stdDeviation="13"/><feComposite in2="hardAlpha" k2="-1" k3="1" operator="arithmetic"/><feColorMatrix values="0 0 0 0 1 0 0 0 0 1 0 0 0 0 1 0 0 0 0.1 0"/><feBlend in2="shape" result="effect1_innerShadow_135_3"/></filter><filter id="v" width="15.298" height="15.355" x="728.662" y="426.092" color-interpolation-filters="sRGB" filterUnits="userSpaceOnUse"><feFlood flood-opacity="0" result="BackgroundImageFix"/><feBlend in="SourceGraphic" in2="BackgroundImageFix" result="shape"/><feColorMatrix in="SourceAlpha" result="hardAlpha" values="0 0 0 0 0 0 0 0 0 0 0 0 0 0 0 0 0 0 127 0"/><feOffset/><feGaussianBlur stdDeviation="13"/><feComposite in2="hardAlpha" k2="-1" k3="1" operator="arithmetic"/><feColorMatrix values="0 0 0 0 1 0 0 0 0 1 0 0 0 0 1 0 0 0 0.1 0"/><feBlend in2="shape" result="effect1_innerShadow_135_3"/></filter><filter id="w" width="15.304" height="15.251" x="680.727" y="406.529" color-interpolation-filters="sRGB" filterUnits="userSpaceOnUse"><feFlood flood-opacity="0" result="BackgroundImageFix"/><feBlend in="SourceGraphic" in2="BackgroundImageFix" result="shape"/><feColorMatrix in="SourceAlpha" result="hardAlpha" values="0 0 0 0 0 0 0 0 0 0 0 0 0 0 0 0 0 0 127 0"/><feOffset/><feGaussianBlur stdDeviation="13"/><feComposite in2="hardAlpha" k2="-1" k3="1" operator="arithmetic"/><feColorMatrix values="0 0 0 0 1 0 0 0 0 1 0 0 0 0 1 0 0 0 0.1 0"/><feBlend in2="shape" result="effect1_innerShadow_135_3"/></filter><filter id="x" width="124.767" height="106.17" x="63.604" y="227.904" color-interpolation-filters="sRGB" filterUnits="userSpaceOnUse"><feFlood flood-opacity="0" result="BackgroundImageFix"/><feBlend in="SourceGraphic" in2="BackgroundImageFix" result="shape"/><feColorMatrix in="SourceAlpha" result="hardAlpha" values="0 0 0 0 0 0 0 0 0 0 0 0 0 0 0 0 0 0 127 0"/><feOffset/><feGaussianBlur stdDeviation="8.627"/><feComposite in2="hardAlpha" k2="-1" k3="1" operator="arithmetic"/><feColorMatrix values="0 0 0 0 1 0 0 0 0 1 0 0 0 0 1 0 0 0 0.07 0"/><feBlend in2="shape" result="effect1_innerShadow_135_3"/></filter><filter id="y" width="106.641" height="83.859" x="70.069" y="234.289" color-interpolation-filters="sRGB" filterUnits="userSpaceOnUse"><feFlood flood-opacity="0" result="BackgroundImageFix"/><feBlend in="SourceGraphic" in2="BackgroundImageFix" result="shape"/><feColorMatrix in="SourceAlpha" result="hardAlpha" values="0 0 0 0 0 0 0 0 0 0 0 0 0 0 0 0 0 0 127 0"/><feOffset/><feGaussianBlur stdDeviation="8.627"/><feComposite in2="hardAlpha" k2="-1" k3="1" operator="arithmetic"/><feColorMatrix values="0 0 0 0 1 0 0 0 0 1 0 0 0 0 1 0 0 0 0.1 0"/><feBlend in2="shape" result="effect1_innerShadow_135_3"/></filter><filter id="z" width="64.546" height="47.829" x="93.052" y="255.862" color-interpolation-filters="sRGB" filterUnits="userSpaceOnUse"><feFlood flood-opacity="0" result="BackgroundImageFix"/><feBlend in="SourceGraphic" in2="BackgroundImageFix" result="shape"/><feColorMatrix in="SourceAlpha" result="hardAlpha" values="0 0 0 0 0 0 0 0 0 0 0 0 0 0 0 0 0 0 127 0"/><feOffset/><feGaussianBlur stdDeviation="8.627"/><feComposite in2="hardAlpha" k2="-1" k3="1" operator="arithmetic"/><feColorMatrix values="0 0 0 0 1 0 0 0 0 1 0 0 0 0 1 0 0 0 0.1 0"/><feBlend in2="shape" result="effect1_innerShadow_135_3"/></filter><filter id="A" width="10.357" height="10.373" x="135.461" y="266.221" color-interpolation-filters="sRGB" filterUnits="userSpaceOnUse"><feFlood flood-opacity="0" result="BackgroundImageFix"/><feBlend in="SourceGraphic" in2="BackgroundImageFix" result="shape"/><feColorMatrix in="SourceAlpha" result="hardAlpha" values="0 0 0 0 0 0 0 0 0 0 0 0 0 0 0 0 0 0 127 0"/><feOffset/><feGaussianBlur stdDeviation="8.627"/><feComposite in2="hardAlpha" k2="-1" k3="1" operator="arithmetic"/><feColorMatrix values="0 0 0 0 1 0 0 0 0 1 0 0 0 0 1 0 0 0 0.1 0"/><feBlend in2="shape" result="effect1_innerShadow_135_3"/></filter><filter id="B" width="10.332" height="10.312" x="105.464" y="282.984" color-interpolation-filters="sRGB" filterUnits="userSpaceOnUse"><feFlood flood-opacity="0" result="BackgroundImageFix"/><feBlend in="SourceGraphic" in2="BackgroundImageFix" result="shape"/><feColorMatrix in="SourceAlpha" result="hardAlpha" values="0 0 0 0 0 0 0 0 0 0 0 0 0 0 0 0 0 0 127 0"/><feOffset/><feGaussianBlur stdDeviation="8.627"/><feComposite in2="hardAlpha" k2="-1" k3="1" operator="arithmetic"/><feColorMatrix values="0 0 0 0 1 0 0 0 0 1 0 0 0 0 1 0 0 0 0.1 0"/><feBlend in2="shape" result="effect1_innerShadow_135_3"/></filter></defs></svg>